<svg width="56" height="56" fill="none" xmlns="http://www.w3.org/2000/svg"><mask id="a" maskUnits="userSpaceOnUse" x="4" y="4" width="48" height="48"><rect x="4" y="4" width="48" height="48" rx="24" fill="#C4C4C4"/></mask><g mask="url(#a)"><mask id="b" maskUnits="userSpaceOnUse" x="4" y="4" width="48" height="48"><path fill="#C4C4C4" d="M4 4h48v48H4z"/></mask><g mask="url(#b)"><path fill="#F5EFFF" d="M4 4h48v48H4z"/><path d="M25.165 4.173s-6.056.373-8.53 5.896c-2.53 5.65-.835 8.837-4.106 12.075-3.271 3.238-4.291 7.74-.691 10.449 4.284 3.224 9.428-.51 13.515 1.12 9.636 3.849 21.262-.855 18.642-7.942-1.252-3.385-3.537-2.318-4.704-11.592-.715-5.704-4.842-11.237-14.126-10.006z" fill="#19274B"/><path d="M53 51.62H3s.671-3.18 1.627-6.375c.957-3.194 2.933-4.533 5.493-5.187.721-.185 2.043-.57 3.57-1.023.862-.259 1.795-.54 2.718-.82 3.22-.979 6.364-1.955 6.364-1.955l5.201-.416.03-.004.03.004 4.691.375s2.822.846 5.902 1.759c2.892.852 6.016 1.764 7.254 2.083 2.56.658 4.536 1.993 5.493 5.188A90.7 90.7 0 0153 51.62z" fill="#FFAC32"/><path d="M14.596 47.138c-.108 1.513-.35 2.996-1.127 4.482H3.003s.671-3.18 1.628-6.375c.956-3.194 2.932-4.533 5.492-5.187.722-.185 2.044-.57 3.57-1.023.725 1.811 1.1 5.294.903 8.103zm26.812 0c.107 1.513.349 2.996 1.127 4.482H53s-.671-3.18-1.627-6.375c-.956-3.194-2.933-4.533-5.493-5.187-.721-.185-2.043-.57-3.57-1.023-.724 1.811-1.1 5.294-.902 8.103zm-2.782-9.164c-.664 3.57-2.932 10.408-10.569 10.76-8.465.39-11.005-7.592-11.65-10.522 3.222-.98 6.366-1.956 6.366-1.956l5.2-.416.03-.003.03.003 4.691.376s2.819.849 5.902 1.758z" fill="#FF8881"/><path d="M28.03 42.923c-3.385 0-5.331-1.708-6.371-3.14-1.118-1.54-1.436-3.067-1.447-3.13a.345.345 0 01.675-.138c.007.03.312 1.47 1.345 2.885 1.373 1.883 3.325 2.836 5.798 2.836s4.318-.953 5.48-2.836c.875-1.412 1.02-2.835 1.02-2.848a.343.343 0 01.375-.309.341.341 0 01.309.376c-.007.063-.161 1.597-1.12 3.147-.89 1.436-2.665 3.157-6.064 3.157z" fill="#F5EFFF"/><path d="M28.03 35.837v.003h-.027l.027-.003z" fill="#5D46C2"/><path d="M28.004 35.84h-.03v-.003l.03.003z" fill="#5D46C2"/><path d="M32.64 37.491s-1.295 2.423-4.912 2.423c-3.496 0-4.966-2.544-4.966-2.544l.215-1.741.037-.292.336-2.745 8.65.242.144 1.043.047.343.45 3.271z" fill="#FF8881"/><path d="M32.137 33.877c-1.96 1.661-5.13 2.292-9.163 1.752l.037-.292.335-2.745 8.65.242.141 1.043z" fill="#19274B"/><path d="M20.098 25.453c-1.936 2.7-6.1.875-5.818-2.708.259-3.252 3.889-2.735 3.889-2.735l1.93 5.442z" fill="#F55B5D"/><path d="M18.984 25.832a3.803 3.803 0 012.37 3.52 3.803 3.803 0 01-3.799 3.797 3.803 3.803 0 01-3.798-3.798 3.808 3.808 0 013.62-3.794c.04.124.07.251.08.385a3.415 3.415 0 00-3.318 3.409 3.415 3.415 0 003.413 3.413 3.415 3.415 0 003.412-3.413 3.418 3.418 0 00-1.926-3.07l-.054-.45z" fill="#F5EFFF"/><path d="M18.317 25.523a.261.261 0 01-.252-.198c-.38-1.54-1.976-2.976-1.99-2.99a.256.256 0 01-.02-.365.257.257 0 01.366-.02c.07.063 1.735 1.556 2.15 3.25a.258.258 0 01-.187.313.272.272 0 01-.067.01z" fill="#D1373F"/><path d="M17.652 24.06a.224.224 0 01-.08-.013 2.864 2.864 0 00-1.39-.091.262.262 0 01-.308-.195.262.262 0 01.194-.308c.034-.007.82-.178 1.668.107a.26.26 0 01.165.326.267.267 0 01-.249.174z" fill="#D1373F"/><path d="M34.422 25.453c1.936 2.7 6.1.875 5.818-2.708-.259-3.252-3.889-2.735-3.889-2.735l-1.93 5.442z" fill="#F55B5D"/><path d="M36.005 25.832a3.804 3.804 0 00-2.368 3.52 3.803 3.803 0 003.798 3.797 3.803 3.803 0 003.798-3.798 3.808 3.808 0 00-3.62-3.794c-.04.124-.07.251-.08.385a3.415 3.415 0 013.318 3.409 3.415 3.415 0 01-3.413 3.413 3.415 3.415 0 01-3.412-3.413c0-1.348.788-2.516 1.926-3.07l.053-.45z" fill="#F5EFFF"/><path d="M36.204 25.523a.256.256 0 01-.248-.319c.415-1.694 2.08-3.19 2.15-3.251a.263.263 0 01.366.02.263.263 0 01-.02.366c-.017.013-1.614 1.45-1.99 2.99a.28.28 0 01-.258.194z" fill="#D1373F"/><path d="M36.868 24.06a.258.258 0 01-.245-.178.257.257 0 01.164-.325c.85-.285 1.634-.114 1.668-.108a.259.259 0 01-.114.503 2.913 2.913 0 00-1.39.091.188.188 0 01-.083.017z" fill="#D1373F"/><path d="M17.4 16.061s-.945 5.858 1.504 11.59c2.218 5.193 5.17 6.81 8.314 6.86 3.573.058 11.056-2.01 9.871-18.963-.802-11.455-18.742-11.052-19.688.513z" fill="#FF8881"/><path d="M36.868 16.658c-4.832.124-8.207-1.167-10.378-2.49.886 1.219 2.389 1.99 2.389 1.99-3.114.796-5.13-2.164-5.992-3.835-2.302 3.59-5.604 5.302-5.604 5.302-2-12.193 6.58-13.207 13.545-12.546 6.51.621 9.76 11.482 6.04 11.58z" fill="#19274B"/><path d="M20.028 15.242s-1.711 3.393-1.148 6.902c.544 3.386.299 6.637-1.372 7.21 0 0 1.134-1.623.1-4.418-1.033-2.795-1.308-6.5-.62-8.21.688-1.712 3.04-1.484 3.04-1.484zm14.716 0s1.711 3.393 1.147 6.902c-.543 3.386-.298 6.637 1.373 7.21 0 0-1.134-1.623-.101-4.418s1.309-6.5.62-8.21c-.687-1.712-3.04-1.484-3.04-1.484zM20.736 19.03s1.369-1.905 3.727-2.15a.682.682 0 01.745.637v.007a.686.686 0 01-.674.725c-.886.01-2.44.137-3.798.782zm13.233 0s-1.369-1.905-3.728-2.15a.682.682 0 00-.745.637v.007a.686.686 0 00.675.725c.886.01 2.442.137 3.798.782z" fill="#19274B"/><path d="M27.661 31.472a3.586 3.586 0 01-1.356-.275.215.215 0 11.178-.393c.02.007 1.346.587 2.406-.11a.219.219 0 01.299.06.22.22 0 01-.06.298 2.64 2.64 0 01-1.467.42zm.762-5.482h-.017l-1.574-.128a.217.217 0 01-.198-.232.217.217 0 01.232-.198l1.315.108-.41-4a.212.212 0 01.192-.235.212.212 0 01.235.192l.436 4.254a.212.212 0 01-.06.171.198.198 0 01-.151.067z" fill="#F55B5D"/><path d="M24.286 27.704c1.936.302 3.905.433 6.542-.09 0 0-.228 2.818-3.358 2.828-2.664.01-3.184-2.738-3.184-2.738z" fill="#F5EFFF"/><path d="M24.131 21.517c0 .745-.339 1.352-.758 1.352-.42 0-.758-.604-.758-1.352 0-.745.339-1.352.758-1.352.42 0 .758.607.758 1.352zm8.056 0c0 .745-.339 1.352-.758 1.352-.42 0-.758-.604-.758-1.352 0-.745.338-1.352.758-1.352.416 0 .758.607.758 1.352z" fill="#19274B"/><path d="M21.363 24.288a.232.232 0 01-.463 0c0-.127.104-.231.232-.231.127-.004.231.1.231.231zm1.134.561a.232.232 0 01-.463 0 .232.232 0 01.463 0zm-1.134.805a.232.232 0 01-.463 0 .232.232 0 01.463 0zm1.55.466a.232.232 0 100-.463.232.232 0 000 .463zm1.188-.235a.232.232 0 100-.463.232.232 0 000 .463zm-.309-1.365a.232.232 0 01-.463 0 .232.232 0 01.463 0zm10.335 0a.232.232 0 100-.463.232.232 0 000 .463zm-1.135.56a.231.231 0 100-.463.231.231 0 000 .463zm1.135.805a.232.232 0 100-.463.232.232 0 000 .463zm-1.785.235a.232.232 0 100-.463.232.232 0 000 .463zm-1.42-.466a.232.232 0 00.463 0 .232.232 0 00-.463 0zm.772-.903a.232.232 0 100-.463.232.232 0 000 .463z" fill="#F55B5D"/></g></g></svg>