<svg width="40" height="40" fill="none" xmlns="http://www.w3.org/2000/svg"><mask id="a" maskUnits="userSpaceOnUse" x="0" y="0" width="40" height="40"><path fill="#C4C4C4" d="M0 0h40v40H0z"/></mask><g mask="url(#a)"><path fill="#F5EFFF" d="M0 0h40v40H0z"/><path d="M36.444 40H3.334s.444-2.106 1.077-4.22c.633-2.116 1.942-3.003 3.637-3.436a81.633 81.633 0 002.364-.678l1.216-.366.584-.178c2.133-.649 4.215-1.295 4.215-1.295l3.444-.276.02-.002.02.002 3.106.249s1.869.56 3.909 1.164l1.182.349c1.526.447 2.968.864 3.621 1.031 1.696.435 3.004 1.32 3.638 3.435a59.939 59.939 0 011.077 4.222z" fill="#19274B"/><path d="M28.108 31.31c-.2.86-.545 1.993-1.127 3.113-1.138 2.195-3.18 4.353-6.815 4.353-3.85 0-6.052-2.236-7.28-4.38a13.123 13.123 0 01-1.26-3.097l.584-.178c2.133-.649 4.215-1.295 4.215-1.295l3.444-.276.02-.002.02.002 3.106.25s1.869.56 3.908 1.163c.394.114.791.232 1.185.347z" fill="#FF8881"/><path d="M15.55 30.439a.341.341 0 01-.316-.473.323.323 0 01.031-.058.341.341 0 01.6.058.307.307 0 01.027.13.342.342 0 01-.343.343zm4.361 3.484a.34.34 0 01-.34-.342.342.342 0 01.684.002.345.345 0 01-.344.34zm.535-.351a.343.343 0 01.292-.387.343.343 0 01.093.678c-.016.002-.031.002-.047.002a.34.34 0 01-.337-.293zm-1.457.284a.343.343 0 01.1-.677.341.341 0 01-.049.68c-.018 0-.035 0-.051-.003zm2.324-.42a.34.34 0 01.218-.43.34.34 0 01.43.217.34.34 0 01-.324.449.342.342 0 01-.324-.236zm-3.237.205a.34.34 0 01-.214-.433.338.338 0 01.434-.214.34.34 0 01.213.434.345.345 0 01-.324.233.496.496 0 01-.11-.02zm4.064-.498a.341.341 0 11.586-.351.341.341 0 11-.586.351zm-4.924.1a.34.34 0 01-.116-.469.34.34 0 11.116.469zm5.666-.571a.343.343 0 01.002-.484.341.341 0 01.484.002.341.341 0 01-.002.484.338.338 0 01-.484-.002zm-6.422-.015a.341.341 0 11.48-.487.339.339 0 01.003.482.338.338 0 01-.245.102.344.344 0 01-.238-.097zm7.028-.62a.343.343 0 11.36-.581.343.343 0 01-.36.58zm-7.623-.125a.341.341 0 11.577-.364.341.341 0 01-.577.364zm8.065-.635a.342.342 0 11.228-.645.342.342 0 01-.228.645zm-8.485-.214a.343.343 0 01.642-.237.344.344 0 01-.322.462.347.347 0 01-.32-.225zm8.801-.624a.343.343 0 01-.131-.027l-.06-.03a.473.473 0 01-.051-.043.305.305 0 01-.074-.111.306.306 0 01-.026-.131.336.336 0 01.15-.282.258.258 0 01.06-.032.336.336 0 01.262 0c.021.01.041.018.059.032a.895.895 0 01.053.042.473.473 0 01.042.05.313.313 0 01.058.189.342.342 0 01-.342.343zm2.735 3.984c-1.138 2.195-3.18 4.353-6.815 4.353-3.85 0-6.052-2.236-7.28-4.38 3.15.769 8.507 1.556 14.095.027z" fill="#F5EFFF"/><path d="M19.91 29.546v.005l-.021-.003.02-.002z" fill="#5D46C2"/><path d="M19.89 29.548l-.021.003v-.005l.02.002z" fill="#5D46C2"/><path d="M24.124 9.198a4.083 4.083 0 01-.187.555 7.32 7.32 0 01-.107.245l-.055.115c-.693 1.371-2.118 2.215-3.653 2.215H18.8a4.094 4.094 0 01-2.866-1.16 5.654 5.654 0 01-.938-1.177 3.928 3.928 0 01-.127-.236c-.024-.05-.049-.102-.07-.155-.496-1.18-.24-2.98 1.077-4.17 3.275-2.958 9.307-.318 8.248 3.768z" fill="#E9356E"/><path d="M24.124 9.198a4.069 4.069 0 01-.187.555 7.326 7.326 0 01-.162.36c-.693 1.371-2.118 2.216-3.653 2.216H18.8a4.094 4.094 0 01-2.866-1.16 5.647 5.647 0 01-.938-1.178 3.988 3.988 0 01-.198-.391 8.792 8.792 0 014.848-1.464c1.767 0 3.338.529 4.478 1.062z" fill="#FFAC32"/><path d="M19.593 25.564a8.392 8.392 0 100-16.784 8.392 8.392 0 000 16.784z" fill="#E9356E"/><path d="M22.96 30.644s-.858 1.604-3.254 1.604c-2.315 0-3.288-1.684-3.288-1.684l.142-1.153.025-.193.222-1.818 5.728.16.096.691.03.227.298 2.166z" fill="#FF8881"/><path d="M22.628 28.248c-1.297 1.1-3.397 1.518-6.068 1.16l.025-.193.222-1.817 5.728.16.093.69z" fill="#19274B"/><path d="M14.654 22.672c-1.282 1.788-4.04.58-3.853-1.794.171-2.153 2.575-1.81 2.575-1.81l1.278 3.604z" fill="#F55B5D"/><path d="M12.963 22.65a.432.432 0 11-.866 0 .432.432 0 11.866 0z" fill="#F5EFFF"/><path d="M13.476 22.716a.173.173 0 01-.166-.131c-.251-1.02-1.309-1.971-1.318-1.98a.17.17 0 01-.013-.242.17.17 0 01.242-.013c.047.042 1.149 1.03 1.424 2.153a.171.171 0 01-.124.206.181.181 0 01-.045.007z" fill="#D1373F"/><path d="M13.034 21.75a.151.151 0 01-.053-.01 1.894 1.894 0 00-.92-.06.172.172 0 01-.204-.128.173.173 0 01.128-.205c.023-.004.543-.118 1.105.071a.172.172 0 01.109.216.18.18 0 01-.165.115z" fill="#D1373F"/><path d="M24.142 22.672c1.282 1.788 4.039.58 3.852-1.794-.17-2.153-2.575-1.81-2.575-1.81l-1.277 3.604z" fill="#F55B5D"/><path d="M26.701 22.65a.432.432 0 11-.866 0 .432.432 0 11.866 0z" fill="#F5EFFF"/><path d="M25.32 22.716a.17.17 0 01-.164-.211c.274-1.122 1.376-2.113 1.423-2.153a.174.174 0 01.242.013.174.174 0 01-.013.242c-.011.01-1.069.96-1.318 1.98a.18.18 0 01-.17.129z" fill="#D1373F"/><path d="M25.761 21.75a.17.17 0 01-.162-.119.168.168 0 01.109-.215 2.247 2.247 0 011.104-.071.171.171 0 01-.076.333 1.927 1.927 0 00-.92.06.178.178 0 01-.055.011z" fill="#D1373F"/><path d="M12.867 16.45s-.626 3.88.996 7.675c1.469 3.44 3.424 4.51 5.506 4.543 2.366.038 7.321-1.33 6.537-12.558-.53-7.585-12.412-7.317-13.038.34z" fill="#FF8881"/><path d="M24.142 13.94s1.106 2.995 1.695 3.763l.646-1.986s-.468-5.735-7.112-5.735c-6.87 0-6.635 5.735-6.635 5.735l.59 2.7s1.728-2.578 1.859-4.287c0 0 2.297 2.547 4.424 2.242 0 0-.78-.835-.989-1.482 0 0 3.715 1.96 6.201 1.253 0 0-.63-.91-.68-2.204z" fill="#E9356E"/><path d="M12.736 15.715s-.804 1.84-.349 3.49c.456 1.651 2.36 3.575 1.011 5.513-1.346 1.937.12 4.73 2.151 4.217 0 0-2.124-.216-2.015-2.424.107-2.209 2.364-2.646.655-5.753-1.708-3.106-.17-5.528-.17-5.528l-1.283.485zm13.747 0s.805 1.84.35 3.49c-.456 1.651-2.36 3.575-1.012 5.513 1.347 1.937-.12 4.73-2.15 4.217 0 0 2.124-.216 2.015-2.424-.107-2.209-2.364-2.646-.656-5.753 1.709-3.106.171-5.528.171-5.528l1.282.485zm-11.405 2.701s.907-1.262 2.469-1.424a.451.451 0 01.493.422v.005a.454.454 0 01-.447.48c-.586.006-1.617.09-2.515.517zm8.763 0s-.906-1.262-2.468-1.424a.451.451 0 00-.493.422v.005a.454.454 0 00.446.48c.587.006 1.616.09 2.515.517z" fill="#E9356E"/><path d="M19.664 26.655c-.486 0-.873-.17-.897-.182a.143.143 0 01.117-.26c.01.005.89.389 1.593-.073a.143.143 0 01.198.04.145.145 0 01-.04.198 1.758 1.758 0 01-.97.277zm.505-3.63h-.011l-1.043-.085a.143.143 0 01-.13-.153.145.145 0 01.153-.131l.87.07-.27-2.648a.14.14 0 01.126-.155.14.14 0 01.156.126l.289 2.82a.141.141 0 01-.14.156z" fill="#F55B5D"/><path d="M17.43 24.16c1.281.2 2.585.287 4.332-.06 0 0-.151 1.866-2.224 1.873-1.765.007-2.109-1.813-2.109-1.813z" fill="#F5EFFF"/><path d="M17.325 20.063c0 .493-.225.895-.502.895-.278 0-.503-.4-.503-.895 0-.493.225-.895.503-.895.277.002.502.402.502.895zm5.335 0c0 .493-.225.895-.503.895-.277 0-.502-.4-.502-.895 0-.493.225-.895.502-.895.278.002.503.402.503.895z" fill="#19274B"/><path d="M15.492 21.898a.154.154 0 01-.307 0 .154.154 0 01.307 0zm.75.372a.154.154 0 01-.306 0 .154.154 0 01.306 0zm-.75.535a.154.154 0 01-.307 0 .154.154 0 01.307 0zm1.182.153a.154.154 0 01-.307 0 .154.154 0 01.307 0zm.786-.153a.154.154 0 01-.306 0 .154.154 0 01.306 0zm-.358-.753a.154.154 0 01-.306 0 .154.154 0 01.306 0zm6.688-.154a.154.154 0 00.307 0 .154.154 0 00-.307 0zm-.597.525a.153.153 0 100-.307.153.153 0 000 .307zm.597.382a.154.154 0 00.307 0 .154.154 0 00-.307 0zm-1.18.153a.154.154 0 00.307 0 .154.154 0 00-.307 0zm-.788-.153a.154.154 0 00.306 0 .154.154 0 00-.306 0zm.358-.753a.154.154 0 00.306 0 .154.154 0 00-.306 0z" fill="#F55B5D"/><path d="M30.968 34.657c-4.851-1.44-8.276-3.989-11.434-5.136-3.157 1.147-6.582 3.695-11.433 5.136-7.697 2.285-9.62-7.995-4.127-11.581 4.836-3.155 4.26-3.683 5.524-9.092a65.39 65.39 0 01.638-2.5c.08-.285.163-.56.25-.829 1.321-4.06 5.106-6.623 9.15-6.483 4.046-.14 7.83 2.423 9.152 6.483.087.266.168.544.25.83a75.524 75.524 0 01.637 2.499c1.265 5.412.689 5.937 5.524 9.092 5.492 3.583 3.566 13.864-4.131 11.581z" fill="#5A184A"/><path d="M39.412 40.002H1.406s.51-2.418 1.237-4.846c.727-2.428 2.229-3.445 4.175-3.943a94.02 94.02 0 002.714-.778c.655-.196 1.364-.41 2.065-.622 2.449-.745 4.839-1.487 4.839-1.487l3.953-.316.023-.003.023.003 3.565.285s2.145.643 4.486 1.337c2.199.648 4.573 1.341 5.514 1.584 1.946.5 3.448 1.515 4.175 3.943a68.546 68.546 0 011.237 4.843z" fill="#E9356E"/><path d="M5.58 34.854a.19.19 0 01-.119-.041l-1.007-.788a.197.197 0 01-.033-.276.197.197 0 01.275-.033l1.007.788c.085.067.1.189.034.276a.202.202 0 01-.156.074zm0 4.256a.19.19 0 01-.119-.04l-1.007-.789a.197.197 0 01-.033-.275.197.197 0 01.275-.033l1.007.788c.085.066.1.188.034.275a.202.202 0 01-.156.074zm5.882-5.817a.204.204 0 01-.102-.028.198.198 0 01-.064-.27l.671-1.09a.197.197 0 01.27-.063c.092.056.12.178.064.27l-.67 1.089a.2.2 0 01-.169.092zm-3.226 4.241a.205.205 0 01-.102-.028.198.198 0 01-.064-.27l.67-1.09a.198.198 0 01.271-.063c.092.056.12.179.064.27l-.67 1.09a.2.2 0 01-.17.091zm1.436-5.34a.19.19 0 01.007.107.195.195 0 01-.23.153L8.196 32.2a.195.195 0 11.077-.382l1.254.252a.193.193 0 01.146.123zm4.32 4.779a.19.19 0 01-.12-.04l-1.007-.789a.197.197 0 01-.033-.275.197.197 0 01.275-.033l1.008.788c.084.066.1.188.033.275a.202.202 0 01-.156.074zm-3.603 2.107a.196.196 0 01.008-.334l1.109-.638a.196.196 0 11.196.34l-1.11.637a.208.208 0 01-.204-.005zm17.457-4.226a.19.19 0 01-.12-.041l-1.007-.788a.197.197 0 01-.034-.276.197.197 0 01.276-.033l1.007.788c.085.067.1.189.034.276a.202.202 0 01-.156.074zm0 4.256a.19.19 0 01-.12-.04l-1.007-.789a.197.197 0 01-.034-.275.197.197 0 01.276-.033l1.007.788c.085.066.1.188.034.275a.202.202 0 01-.156.074zm5.884-5.817a.204.204 0 01-.102-.028.198.198 0 01-.064-.27l.67-1.09a.197.197 0 01.271-.063c.092.056.12.178.064.27l-.67 1.089a.208.208 0 01-.17.092zm-3.227 4.241a.205.205 0 01-.102-.028.197.197 0 01-.063-.27l.67-1.09a.198.198 0 01.27-.063c.093.056.12.179.065.27l-.671 1.09a.201.201 0 01-.169.091zm6.867 1.801a.204.204 0 01-.103-.028.197.197 0 01-.064-.27l.671-1.09a.198.198 0 01.27-.063c.092.056.12.178.064.27l-.67 1.089a.201.201 0 01-.169.092zm-5.433-7.141a.19.19 0 01.008.107.195.195 0 01-.23.153L30.46 32.2a.195.195 0 11.077-.382l1.255.252a.193.193 0 01.145.123zm4.32 3.971a.19.19 0 01-.12-.041l-1.007-.788a.197.197 0 01-.033-.276.198.198 0 01.275-.033l1.008.788c.084.067.1.189.033.276a.198.198 0 01-.156.074zm-3.601 2.915a.195.195 0 01.008-.334l1.11-.638a.196.196 0 11.196.34l-1.11.637a.207.207 0 01-.204-.005zm-12.262-3.487a.205.205 0 01-.102-.028.198.198 0 01-.064-.27l.67-1.09a.198.198 0 01.271-.063c.092.056.12.179.064.27l-.67 1.09a.201.201 0 01-.17.091zm-3.109 3.421a.204.204 0 01-.102-.029.198.198 0 01-.064-.27l.67-1.089a.198.198 0 01.271-.064c.092.056.12.179.064.27l-.67 1.09a.201.201 0 01-.17.092zm.245-4.102a.19.19 0 01.007.107.195.195 0 01-.23.153l-1.254-.252a.195.195 0 11.076-.383l1.255.253a.193.193 0 01.146.122zm7.352 1.123a.19.19 0 01-.12-.041l-1.007-.788a.197.197 0 01-.033-.276.197.197 0 01.275-.033l1.008.788c.084.066.1.189.033.276a.202.202 0 01-.156.074zm-3.825 3.091a.196.196 0 01.008-.334l1.109-.638a.196.196 0 11.196.34l-1.11.637a.196.196 0 01-.203-.005z" fill="#C4205C"/><path d="M20.432 28v.006l-.02-.003.02-.002zm-.02.003l-.023.003V28l.023.002z" fill="#5D46C2"/><path d="M23.936 29.26s-.984 1.842-3.733 1.842c-2.658 0-3.775-1.933-3.775-1.933l.163-1.324.028-.222.255-2.086 6.575.184.11.793.036.26.341 2.486z" fill="#FF8881"/><path d="M26.515 32.11c-1.635 2.106-5.185.971-6.338-.57-1.153 1.541-4.7 2.674-6.338.57-1.576-2.028 2.693-3.796 2.693-3.796.437 1.964 2.831 2.594 3.645 2.747.814-.153 3.193-.78 3.63-2.747-.003 0 4.281 1.765 2.708 3.795z" fill="#F5EFFF"/><path d="M23.554 26.511c-1.49 1.263-3.9 1.742-6.965 1.332l.028-.222.255-2.087 6.575.184.107.793z" fill="#19274B"/><path d="M14.403 20.11c-1.472 2.053-4.637.666-4.422-2.058.196-2.472 2.955-2.079 2.955-2.079l1.467 4.137z" fill="#F55B5D"/><path d="M12.875 21.176a.912.912 0 11-1.826 0 .912.912 0 111.826 0z" fill="#FFAC32"/><path d="M13.049 20.16a.198.198 0 01-.192-.15c-.285-1.168-1.502-2.262-1.512-2.272a.195.195 0 01-.015-.278.195.195 0 01.278-.015c.053.048 1.318 1.183 1.634 2.47a.196.196 0 01-.142.238.206.206 0 01-.051.008z" fill="#D1373F"/><path d="M12.544 19.051a.17.17 0 01-.062-.01 2.176 2.176 0 00-1.055-.069.2.2 0 01-.235-.148.199.199 0 01.148-.234c.025-.005.622-.136 1.268.081a.197.197 0 01.124.248.206.206 0 01-.188.132z" fill="#D1373F"/><path d="M25.29 20.11c1.472 2.053 4.637.666 4.423-2.058-.196-2.472-2.956-2.079-2.956-2.079l-1.466 4.137z" fill="#F55B5D"/><path d="M28.726 21.176a.912.912 0 11-1.826 0 .912.912 0 111.826 0z" fill="#FFAC32"/><path d="M26.645 20.16a.194.194 0 01-.189-.242c.316-1.287 1.581-2.425 1.635-2.47a.2.2 0 01.278.015.2.2 0 01-.015.278c-.013.01-1.227 1.101-1.513 2.272a.209.209 0 01-.196.148z" fill="#D1373F"/><path d="M27.15 19.052a.196.196 0 01-.186-.136.195.195 0 01.125-.247c.645-.217 1.242-.087 1.267-.082a.196.196 0 01-.087.383c-.005 0-.517-.11-1.055.069a.188.188 0 01-.064.012z" fill="#D1373F"/><path d="M12.352 12.969s-.719 4.453 1.143 8.809c1.686 3.948 3.93 5.177 6.32 5.215 2.716.044 8.403-1.527 7.503-14.415-.61-8.707-14.246-8.398-14.966.39z" fill="#FF8881"/><path d="M11.962 14.938s.143 2.759 1.288 2.654c1.145-.104.59-6.317.59-6.317s1.02 1.505 2.881 1.342c1.862-.164.174-2.584.174-2.584s1.716 2.387 3.29 2.29c1.57-.097 0-3.042 0-3.042s2.053 3.336 3.53 3.239c1.476-.097.227-2.877.227-2.877s1.175 3.076 2.297 3.303c0 0-.283 4.53.919 4.338 1.198-.191.755-5.254.262-6.792-.492-1.538-3.137-5.397-8.225-4.907-5.095.49-7.141 3.303-7.233 9.352z" fill="#5A184A"/><path d="M14.887 15.226s1.041-1.449 2.834-1.635a.52.52 0 01.566.485v.005a.521.521 0 01-.512.55c-.674.008-1.855.105-2.887.595zm10.059 0s-1.04-1.449-2.833-1.635a.518.518 0 00-.566.485v.005a.522.522 0 00.512.55c.674.008 1.857.105 2.887.595z" fill="#5A184A"/><path d="M20.151 24.683a2.724 2.724 0 01-1.03-.21.164.164 0 01-.081-.216c.038-.082.135-.12.216-.082.016.005 1.02.447 1.829-.084a.166.166 0 01.227.046.167.167 0 01-.046.227 2.013 2.013 0 01-1.114.319zm.579-4.168h-.012l-1.196-.097a.165.165 0 01-.15-.176.167.167 0 01.175-.15l1 .082-.311-3.04a.161.161 0 01.145-.18c.09-.01.171.057.179.146l.331 3.237a.162.162 0 01-.16.178z" fill="#F55B5D"/><path d="M17.586 21.818c1.472.23 2.969.33 4.973-.069 0 0-.173 2.143-2.553 2.15-2.022.008-2.42-2.08-2.42-2.08z" fill="#F5EFFF"/><path d="M17.468 17.116c0 .566-.257 1.027-.576 1.027-.319 0-.576-.459-.576-1.027 0-.567.257-1.028.576-1.028.319.002.576.461.576 1.027zm5.548 1.027c.318 0 .576-.46.576-1.027 0-.568-.258-1.028-.576-1.028-.319 0-.577.46-.577 1.027 0 .568.258 1.028.577 1.028z" fill="#19274B"/><path d="M15.364 19.222a.176.176 0 01-.352 0 .176.176 0 01.352 0zm.684.602a.176.176 0 100-.352.176.176 0 000 .352zm-.684.439a.176.176 0 01-.351 0 .176.176 0 01.351 0zm1.355.176a.176.176 0 01-.352 0 .176.176 0 01.352 0zm.903-.176a.176.176 0 01-.352 0 .176.176 0 01.352 0zm-.411-.865a.176.176 0 01-.352 0 .176.176 0 01.352 0zm7.677-.176a.176.176 0 00.352 0 .176.176 0 00-.352 0zm-.684.602a.176.176 0 100-.352.176.176 0 000 .352zm.684.439a.176.176 0 00.352 0 .176.176 0 00-.352 0zm-1.355.176a.176.176 0 00.352 0 .176.176 0 00-.352 0zm-.903-.176a.176.176 0 00.353 0 .176.176 0 00-.352 0zm.411-.865a.176.176 0 00.352 0 .176.176 0 00-.352 0z" fill="#F55B5D"/><path d="M16.663 20.48a2.888 2.888 0 01-2.885-2.885 2.888 2.888 0 012.885-2.885 2.888 2.888 0 012.884 2.885 2.89 2.89 0 01-2.884 2.885zm0-5.507a2.624 2.624 0 00-2.622 2.622 2.624 2.624 0 002.622 2.622 2.624 2.624 0 002.621-2.622 2.626 2.626 0 00-2.621-2.622zm6.942 5.507a2.888 2.888 0 01-2.885-2.885 2.888 2.888 0 012.885-2.885 2.888 2.888 0 012.884 2.885 2.89 2.89 0 01-2.884 2.885zm0-5.507a2.624 2.624 0 00-2.622 2.622 2.624 2.624 0 002.622 2.622 2.624 2.624 0 002.622-2.622 2.624 2.624 0 00-2.622-2.622z" fill="#F5EFFF"/><path d="M26.193 16.791a.134.134 0 01-.089-.033.13.13 0 01-.008-.183c.036-.038.888-.96 2.166-.747a.13.13 0 01.107.15.13.13 0 01-.15.107c-1.138-.186-1.921.658-1.929.666a.14.14 0 01-.097.04zm-12.101-.053a.128.128 0 01-.095-.04c-.015-.016-1.045-1.046-2.315-.62a.13.13 0 01-.166-.082.13.13 0 01.082-.166c1.433-.48 2.54.638 2.588.686a.132.132 0 01-.002.186.139.139 0 01-.092.036zm5.323.594h-.008a.132.132 0 01-.123-.14c.016-.23.212-.663.85-.663.637 0 .834.433.849.663a.133.133 0 01-.122.14.133.133 0 01-.14-.122c-.003-.041-.052-.419-.59-.419-.553 0-.586.4-.586.419a.13.13 0 01-.13.122z" fill="#F5EFFF"/></g></svg>